<svg width="181" height="65" viewBox="0 0 181 65" fill="none" xmlns="http://www.w3.org/2000/svg">
<path d="M3.325 29.935C3.235 30.205 3.1 30.34 2.92 30.34C2.74 30.34 2.65 30.115 2.65 29.665C2.65 29.215 3.04 28.42 3.82 27.28C4.6 26.11 5.725 24.865 7.195 23.545C8.695 22.195 10.36 20.92 12.19 19.72C14.02 18.52 16.135 17.53 18.535 16.75C20.965 15.94 23.365 15.535 25.735 15.535C25.975 15.625 26.275 15.745 26.635 15.895C27.025 16.015 27.52 16.3 28.12 16.75C28.75 17.17 29.065 17.56 29.065 17.92C29.065 18.28 28.99 18.55 28.84 18.73C26.53 20.83 23.935 23.365 21.055 26.335C18.205 29.305 16.015 31.78 14.485 33.76L11.245 37.99C11.065 38.26 10.975 38.47 10.975 38.62V38.665L11.695 38.305C11.755 38.275 11.8 38.245 11.83 38.215C22.78 30.505 30.115 25.045 33.835 21.835C33.925 21.715 34.045 21.655 34.195 21.655C34.345 21.655 34.45 21.7 34.51 21.79C34.57 21.88 34.855 22.165 35.365 22.645C35.875 23.095 36.13 23.44 36.13 23.68C36.13 23.89 36.04 24.07 35.86 24.22C32.89 27.04 29.86 30.58 26.77 34.84C23.68 39.1 22.135 42.385 22.135 44.695C22.135 44.965 22.27 45.1 22.54 45.1C23.14 45.1 24.55 44.29 26.77 42.67C28.99 41.05 31.51 38.995 34.33 36.505C37.18 34.015 40.18 30.97 43.33 27.37C46.51 23.74 49.105 20.215 51.115 16.795C51.385 16.225 51.595 15.76 51.745 15.4C51.895 15.01 52.12 14.815 52.42 14.815C52.75 14.815 53.08 15.265 53.41 16.165C53.77 17.035 53.95 17.8 53.95 18.46C53.95 19.51 52.75 21.61 50.35 24.76C47.95 27.91 45.145 31.165 41.935 34.525C38.725 37.885 35.32 40.885 31.72 43.525C28.12 46.135 25.285 47.44 23.215 47.44C22.225 47.44 21.235 47.05 20.245 46.27C19.285 45.49 18.805 44.23 18.805 42.49C18.805 40.33 19.45 38.11 20.74 35.83C21.25 34.93 21.865 34.12 22.585 33.4L23.62 32.185L23.8 31.825V31.78C23.8 31.72 23.785 31.69 23.755 31.69C23.665 31.69 23.53 31.78 23.35 31.96C16.66 37.84 12.13 41.755 9.76 43.705C7.39 45.625 5.995 46.585 5.575 46.585C5.155 46.585 4.81 46.375 4.54 45.955C4.42 45.805 4.285 45.655 4.135 45.505C4.015 45.325 3.925 45.205 3.865 45.145C3.805 45.055 3.745 44.98 3.685 44.92C3.625 44.83 3.58 44.77 3.55 44.74C3.52 44.59 3.505 44.365 3.505 44.065C3.505 43.765 3.61 43.33 3.82 42.76C4.03 42.19 4.225 41.65 4.405 41.14C4.615 40.6 5.185 39.49 6.115 37.81C7.045 36.1 8.155 34.39 9.445 32.68C10.735 30.94 12.625 28.825 15.115 26.335C17.605 23.845 20.395 21.445 23.485 19.135C24.055 18.685 24.34 18.4 24.34 18.28C24.34 18.16 24.28 18.1 24.16 18.1C21.91 18.1 18.16 19.6 12.91 22.6C7.69 25.6 4.495 28.045 3.325 29.935ZM56.7091 23.725C57.0091 23.725 57.2041 23.785 57.2941 23.905C57.7141 24.415 57.9241 24.835 57.9241 25.165C57.9241 25.465 57.8341 25.735 57.6541 25.975C57.4741 26.185 57.2491 26.44 56.9791 26.74C56.7391 27.01 56.2291 27.4 55.4491 27.91C54.6991 28.39 53.9641 28.63 53.2441 28.63C52.7041 28.54 52.4341 28.21 52.4341 27.64C52.4341 26.74 52.9741 25.87 54.0541 25.03C55.1341 24.16 56.0191 23.725 56.7091 23.725ZM45.9091 41.455C45.6691 41.875 45.5491 42.25 45.5491 42.58C45.5491 42.91 45.7291 43.075 46.0891 43.075C46.2991 43.075 46.6591 42.985 47.1691 42.805C52.7791 39.865 58.2691 36.4 63.6391 32.41C63.9091 32.62 64.0441 32.875 64.0441 33.175C64.0441 33.475 63.8941 33.76 63.5941 34.03C63.2941 34.3 62.8591 34.69 62.2891 35.2C61.7491 35.71 60.6991 36.625 59.1391 37.945C57.5791 39.265 56.1241 40.465 54.7741 41.545C51.2341 44.395 48.6241 46.075 46.9441 46.585C46.4041 46.735 45.8191 46.81 45.1891 46.81C42.8791 46.81 41.7241 45.58 41.7241 43.12C41.7241 42.16 42.2491 40.795 43.2991 39.025C44.3491 37.225 45.4291 35.65 46.5391 34.3C47.6491 32.92 48.3841 32.155 48.7441 32.005C49.2841 31.675 49.8691 31.51 50.4991 31.51C51.1291 31.51 51.7291 31.63 52.2991 31.87C52.4791 31.96 52.5691 32.08 52.5691 32.23C52.5691 32.38 52.4191 32.605 52.1191 32.905C51.8491 33.205 51.4141 33.67 50.8141 34.3C50.2441 34.93 49.3741 36.025 48.2041 37.585C47.0641 39.115 46.2991 40.405 45.9091 41.455ZM64.2603 31.105C64.5003 31.105 64.8903 31.225 65.4303 31.465C66.0003 31.705 66.2853 31.975 66.2853 32.275C66.2853 32.485 66.2103 32.695 66.0603 32.905L62.6853 37.585C62.2953 38.065 62.1003 38.335 62.1003 38.395C62.1003 38.455 62.1153 38.485 62.1453 38.485L62.3703 38.35C65.8503 35.92 68.7153 33.79 70.9653 31.96C71.3853 31.66 71.7303 31.51 72.0003 31.51C72.3003 31.51 72.4953 31.54 72.5853 31.6L73.8453 31.96C74.1453 32.11 74.2953 32.305 74.2953 32.545C74.2953 32.785 74.2353 32.98 74.1153 33.13C73.5453 33.76 72.8853 34.48 72.1353 35.29C71.4153 36.07 70.8753 36.67 70.5153 37.09C70.1553 37.48 69.7503 37.93 69.3003 38.44C68.8503 38.95 68.5203 39.34 68.3103 39.61C68.1303 39.88 67.9203 40.195 67.6803 40.555C67.4403 40.885 67.2753 41.17 67.1853 41.41C67.0053 42.1 66.9153 42.7 66.9153 43.21C66.9153 43.48 67.0803 43.615 67.4103 43.615C67.7703 43.615 68.4003 43.405 69.3003 42.985C70.2303 42.565 71.3253 41.92 72.5853 41.05C73.8753 40.18 75.5703 38.95 77.6703 37.36C79.8003 35.74 81.6603 34.375 83.2503 33.265C83.5203 33.475 83.6553 33.73 83.6553 34.03C83.6553 34.33 83.5203 34.6 83.2503 34.84C82.2903 35.77 81.0753 36.94 79.6053 38.35C78.1353 39.73 75.8853 41.59 72.8553 43.93C69.8553 46.27 67.7553 47.44 66.5553 47.44C64.2453 47.44 63.0903 46.21 63.0903 43.75C63.0903 42.82 63.4503 41.845 64.1703 40.825L66.1053 38.17C66.2853 37.9 66.3753 37.75 66.3753 37.72C66.3753 37.66 66.2853 37.705 66.1053 37.855C60.8853 42.205 57.5553 44.755 56.1153 45.505C55.8753 45.655 55.5753 45.73 55.2153 45.73C54.2253 45.73 53.7303 45.28 53.7303 44.38C53.7303 44.08 53.8053 43.81 53.9553 43.57C56.1753 41.53 57.7353 39.865 58.6353 38.575C59.3553 37.855 60.1053 36.85 60.8853 35.56C61.6953 34.27 62.3703 33.205 62.9103 32.365C63.4803 31.525 63.9303 31.105 64.2603 31.105ZM89.0535 32.41C88.2735 32.41 86.9535 33.22 85.0935 34.84C83.2335 36.43 82.3035 37.405 82.3035 37.765C82.3035 37.825 82.3485 37.855 82.4385 37.855C83.0985 37.855 84.4035 37.12 86.3535 35.65C88.3335 34.18 89.3235 33.175 89.3235 32.635C89.3235 32.485 89.2335 32.41 89.0535 32.41ZM79.4685 46.81C77.1585 46.81 76.0035 45.4 76.0035 42.58C76.0035 40.81 76.7685 38.935 78.2985 36.955C79.8585 34.945 81.6885 33.31 83.7885 32.05C85.8885 30.76 87.7485 30.115 89.3685 30.115C90.0885 30.115 90.7485 30.4 91.3485 30.97C91.9785 31.54 92.2935 32.095 92.2935 32.635C92.2935 33.625 91.5885 34.75 90.1785 36.01C88.7685 37.24 87.2835 38.245 85.7235 39.025C84.1935 39.775 83.1735 40.15 82.6635 40.15C82.1835 40.15 81.8235 39.925 81.5835 39.475C81.4635 39.385 81.2985 39.34 81.0885 39.34C80.8785 39.34 80.5335 39.745 80.0535 40.555C79.5735 41.335 79.3335 41.98 79.3335 42.49C79.3335 42.97 79.5135 43.27 79.8735 43.39C82.1535 43.39 84.6285 42.73 87.2985 41.41C89.9685 40.06 93.6585 37.705 98.3685 34.345C98.6985 34.105 99.1935 33.745 99.8535 33.265C100.544 32.785 100.949 32.5 101.069 32.41C101.339 32.62 101.474 32.875 101.474 33.175C101.474 33.475 101.339 33.745 101.069 33.985C99.5685 35.485 97.6185 37.165 95.2185 39.025C92.8485 40.885 90.1185 42.655 87.0285 44.335C83.9385 45.985 81.4185 46.81 79.4685 46.81ZM100 41.5C102.16 39.04 104.95 35.74 108.37 31.6C111.79 27.46 114.31 24.52 115.93 22.78C117.55 21.04 118.945 19.72 120.115 18.82C122.845 16.78 125.62 15.76 128.44 15.76C129.07 15.76 129.775 16.015 130.555 16.525C131.365 17.035 131.77 17.83 131.77 18.91C131.77 19.96 130.765 21.58 128.755 23.77C127.765 24.85 126.325 25.96 124.435 27.1C122.575 28.21 120.49 29.11 118.18 29.8C117.31 29.95 116.665 30.025 116.245 30.025C115.855 30.025 115.66 29.98 115.66 29.89C115.66 29.8 115.765 29.695 115.975 29.575C118.495 28.195 121.315 26.11 124.435 23.32C127.585 20.53 129.16 18.7 129.16 17.83C129.16 17.71 129.07 17.65 128.89 17.65C128.74 17.65 128.56 17.68 128.35 17.74C128.17 17.8 127.96 17.86 127.72 17.92C127.48 17.98 126.97 18.235 126.19 18.685C125.41 19.105 124.585 19.645 123.715 20.305C122.875 20.935 121.81 21.925 120.52 23.275C119.26 24.595 117.985 26.125 116.695 27.865C111.745 34.795 108.535 39.055 107.065 40.645C106.825 40.915 106.525 41.245 106.165 41.635C106.915 41.725 108.04 41.83 109.54 41.95C111.04 42.07 112.045 42.175 112.555 42.265C113.095 42.325 113.875 42.475 114.895 42.715C115.915 42.955 116.725 43.255 117.325 43.615C118.885 44.575 120.385 45.88 121.825 47.53C122.155 47.89 122.32 48.13 122.32 48.25C122.32 48.37 122.275 48.43 122.185 48.43C122.035 48.43 121.84 48.37 121.6 48.25C121.15 48.13 120.49 47.965 119.62 47.755C118.78 47.545 116.95 47.275 114.13 46.945C111.31 46.615 108.715 46.45 106.345 46.45C104.005 46.45 102.295 46.465 101.215 46.495C99.6251 47.995 97.3901 49.39 94.5101 50.68C91.6301 51.97 89.4701 52.615 88.0301 52.615C86.5601 52.615 85.1801 52.225 83.8901 51.445C82.6001 50.695 81.9551 49.675 81.9551 48.385C81.9551 47.455 82.6601 46.435 84.0701 45.325C87.3101 42.775 92.6201 41.5 100 41.5ZM84.4301 49.69C84.4301 49.99 84.7901 50.185 85.5101 50.275C86.4401 50.275 87.2351 50.215 87.8951 50.095C88.5551 50.005 89.5301 49.675 90.8201 49.105C92.0801 48.535 93.4151 47.695 94.8251 46.585C92.9051 46.585 90.7001 46.93 88.2101 47.62C85.6901 48.31 84.4301 49 84.4301 49.69ZM136.382 23.725C136.682 23.725 136.877 23.785 136.967 23.905C137.387 24.415 137.597 24.835 137.597 25.165C137.597 25.465 137.507 25.735 137.327 25.975C137.147 26.185 136.922 26.44 136.652 26.74C136.412 27.01 135.902 27.4 135.122 27.91C134.372 28.39 133.637 28.63 132.917 28.63C132.377 28.54 132.107 28.21 132.107 27.64C132.107 26.74 132.647 25.87 133.727 25.03C134.807 24.16 135.692 23.725 136.382 23.725ZM125.582 41.455C125.342 41.875 125.222 42.25 125.222 42.58C125.222 42.91 125.402 43.075 125.762 43.075C125.972 43.075 126.332 42.985 126.842 42.805C132.452 39.865 137.942 36.4 143.312 32.41C143.582 32.62 143.717 32.875 143.717 33.175C143.717 33.475 143.567 33.76 143.267 34.03C142.967 34.3 142.532 34.69 141.962 35.2C141.422 35.71 140.372 36.625 138.812 37.945C137.252 39.265 135.797 40.465 134.447 41.545C130.907 44.395 128.297 46.075 126.617 46.585C126.077 46.735 125.492 46.81 124.862 46.81C122.552 46.81 121.397 45.58 121.397 43.12C121.397 42.16 121.922 40.795 122.972 39.025C124.022 37.225 125.102 35.65 126.212 34.3C127.322 32.92 128.057 32.155 128.417 32.005C128.957 31.675 129.542 31.51 130.172 31.51C130.802 31.51 131.402 31.63 131.972 31.87C132.152 31.96 132.242 32.08 132.242 32.23C132.242 32.38 132.092 32.605 131.792 32.905C131.522 33.205 131.087 33.67 130.487 34.3C129.917 34.93 129.047 36.025 127.877 37.585C126.737 39.115 125.972 40.405 125.582 41.455ZM139.784 42.715C140.834 42.715 141.794 42.085 142.664 40.825C143.564 39.535 144.194 38.245 144.554 36.955C144.914 35.635 145.094 34.585 145.094 33.805C145.094 33.595 144.929 33.49 144.599 33.49C144.299 33.49 143.939 33.655 143.519 33.985L137.624 38.53C137.204 38.77 136.724 38.89 136.184 38.89C135.644 38.89 135.374 38.695 135.374 38.305C135.374 38.035 135.404 37.855 135.464 37.765C135.554 37.675 135.779 37.525 136.139 37.315C138.359 35.785 141.389 33.295 145.229 29.845C145.679 29.245 146.084 28.945 146.444 28.945C146.804 28.945 147.404 29.065 148.244 29.305C149.084 29.515 149.504 29.77 149.504 30.07C149.504 31.87 149.339 33.505 149.009 34.975C148.679 36.445 148.334 37.57 147.974 38.35C147.644 39.1 147.479 39.505 147.479 39.565C147.479 39.625 147.509 39.655 147.569 39.655C147.629 39.655 147.749 39.61 147.929 39.52C150.179 38.38 153.044 36.52 156.524 33.94L157.604 33.13C157.874 33.34 158.009 33.595 158.009 33.895C158.009 34.195 157.874 34.465 157.604 34.705C157.544 34.705 156.764 35.335 155.264 36.595C153.794 37.855 152.144 39.235 150.314 40.735C148.514 42.205 146.579 43.555 144.509 44.785C142.439 46.015 140.834 46.63 139.694 46.63C136.874 46.63 135.464 44.935 135.464 41.545C135.464 41.275 135.569 41.035 135.779 40.825C136.019 40.585 136.319 40.465 136.679 40.465C136.679 40.615 136.754 40.855 136.904 41.185C137.084 41.485 137.264 41.74 137.444 41.95C137.984 42.46 138.764 42.715 139.784 42.715ZM170.773 25.21L173.068 25.165C176.038 25.165 178.198 25.585 179.548 26.425C180.208 26.635 180.538 26.905 180.538 27.235C180.538 27.475 180.238 27.64 179.638 27.73C179.068 27.82 177.043 28.06 173.563 28.45C170.113 28.81 167.743 29.02 166.453 29.08C165.883 29.11 164.563 30.1 162.493 32.05C160.453 34 158.503 36.145 156.643 38.485C154.783 40.825 153.853 42.46 153.853 43.39C153.853 43.54 153.928 43.675 154.078 43.795C154.228 43.885 154.408 43.93 154.618 43.93C154.858 43.93 155.218 43.84 155.698 43.66C161.398 40.3 166.933 36.625 172.303 32.635C172.573 32.845 172.708 33.1 172.708 33.4C172.708 33.7 172.558 34 172.258 34.3C171.958 34.57 171.508 34.975 170.908 35.515C170.338 36.055 169.258 37.03 167.668 38.44C166.078 39.85 164.578 41.11 163.168 42.22C159.388 45.28 156.748 47.05 155.248 47.53C154.708 47.68 154.063 47.755 153.313 47.755C152.593 47.755 151.918 47.38 151.288 46.63C150.688 45.88 150.388 44.86 150.388 43.57C150.388 42.28 151.213 40.42 152.863 37.99C154.543 35.56 156.823 33.07 159.703 30.52C159.973 30.31 160.108 30.115 160.108 29.935C160.108 29.755 159.793 29.665 159.163 29.665L156.328 29.755C152.338 29.755 150.283 29.305 150.163 28.405C149.233 28.225 148.768 27.955 148.768 27.595C148.768 27.475 148.828 27.415 148.948 27.415C149.068 27.385 149.173 27.37 149.263 27.37C149.353 27.34 149.503 27.31 149.713 27.28C149.923 27.25 151.573 27.01 154.663 26.56C157.783 26.11 161.323 25.735 165.283 25.435L168.388 21.295C168.568 20.935 169.198 20.755 170.278 20.755C171.358 20.755 171.898 20.98 171.898 21.43C171.898 21.58 171.778 21.85 171.538 22.24L170.413 23.815C170.263 24.295 170.173 24.655 170.143 24.895C170.143 25.105 170.353 25.21 170.773 25.21Z" fill="#F0D3D3"/>
<path d="M1.325 27.935C1.235 28.205 1.1 28.34 0.92 28.34C0.74 28.34 0.65 28.115 0.65 27.665C0.65 27.215 1.04 26.42 1.82 25.28C2.6 24.11 3.725 22.865 5.195 21.545C6.695 20.195 8.36 18.92 10.19 17.72C12.02 16.52 14.135 15.53 16.535 14.75C18.965 13.94 21.365 13.535 23.735 13.535C23.975 13.625 24.275 13.745 24.635 13.895C25.025 14.015 25.52 14.3 26.12 14.75C26.75 15.17 27.065 15.56 27.065 15.92C27.065 16.28 26.99 16.55 26.84 16.73C24.53 18.83 21.935 21.365 19.055 24.335C16.205 27.305 14.015 29.78 12.485 31.76L9.245 35.99C9.065 36.26 8.975 36.47 8.975 36.62V36.665L9.695 36.305C9.755 36.275 9.8 36.245 9.83 36.215C20.78 28.505 28.115 23.045 31.835 19.835C31.925 19.715 32.045 19.655 32.195 19.655C32.345 19.655 32.45 19.7 32.51 19.79C32.57 19.88 32.855 20.165 33.365 20.645C33.875 21.095 34.13 21.44 34.13 21.68C34.13 21.89 34.04 22.07 33.86 22.22C30.89 25.04 27.86 28.58 24.77 32.84C21.68 37.1 20.135 40.385 20.135 42.695C20.135 42.965 20.27 43.1 20.54 43.1C21.14 43.1 22.55 42.29 24.77 40.67C26.99 39.05 29.51 36.995 32.33 34.505C35.18 32.015 38.18 28.97 41.33 25.37C44.51 21.74 47.105 18.215 49.115 14.795C49.385 14.225 49.595 13.76 49.745 13.4C49.895 13.01 50.12 12.815 50.42 12.815C50.75 12.815 51.08 13.265 51.41 14.165C51.77 15.035 51.95 15.8 51.95 16.46C51.95 17.51 50.75 19.61 48.35 22.76C45.95 25.91 43.145 29.165 39.935 32.525C36.725 35.885 33.32 38.885 29.72 41.525C26.12 44.135 23.285 45.44 21.215 45.44C20.225 45.44 19.235 45.05 18.245 44.27C17.285 43.49 16.805 42.23 16.805 40.49C16.805 38.33 17.45 36.11 18.74 33.83C19.25 32.93 19.865 32.12 20.585 31.4L21.62 30.185L21.8 29.825V29.78C21.8 29.72 21.785 29.69 21.755 29.69C21.665 29.69 21.53 29.78 21.35 29.96C14.66 35.84 10.13 39.755 7.76 41.705C5.39 43.625 3.995 44.585 3.575 44.585C3.155 44.585 2.81 44.375 2.54 43.955C2.42 43.805 2.285 43.655 2.135 43.505C2.015 43.325 1.925 43.205 1.865 43.145C1.805 43.055 1.745 42.98 1.685 42.92C1.625 42.83 1.58 42.77 1.55 42.74C1.52 42.59 1.505 42.365 1.505 42.065C1.505 41.765 1.61 41.33 1.82 40.76C2.03 40.19 2.225 39.65 2.405 39.14C2.615 38.6 3.185 37.49 4.115 35.81C5.045 34.1 6.155 32.39 7.445 30.68C8.735 28.94 10.625 26.825 13.115 24.335C15.605 21.845 18.395 19.445 21.485 17.135C22.055 16.685 22.34 16.4 22.34 16.28C22.34 16.16 22.28 16.1 22.16 16.1C19.91 16.1 16.16 17.6 10.91 20.6C5.69 23.6 2.495 26.045 1.325 27.935ZM54.7091 21.725C55.0091 21.725 55.2041 21.785 55.2941 21.905C55.7141 22.415 55.9241 22.835 55.9241 23.165C55.9241 23.465 55.8341 23.735 55.6541 23.975C55.4741 24.185 55.2491 24.44 54.9791 24.74C54.7391 25.01 54.2291 25.4 53.4491 25.91C52.6991 26.39 51.9641 26.63 51.2441 26.63C50.7041 26.54 50.4341 26.21 50.4341 25.64C50.4341 24.74 50.9741 23.87 52.0541 23.03C53.1341 22.16 54.0191 21.725 54.7091 21.725ZM43.9091 39.455C43.6691 39.875 43.5491 40.25 43.5491 40.58C43.5491 40.91 43.7291 41.075 44.0891 41.075C44.2991 41.075 44.6591 40.985 45.1691 40.805C50.7791 37.865 56.2691 34.4 61.6391 30.41C61.9091 30.62 62.0441 30.875 62.0441 31.175C62.0441 31.475 61.8941 31.76 61.5941 32.03C61.2941 32.3 60.8591 32.69 60.2891 33.2C59.7491 33.71 58.6991 34.625 57.1391 35.945C55.5791 37.265 54.1241 38.465 52.7741 39.545C49.2341 42.395 46.6241 44.075 44.9441 44.585C44.4041 44.735 43.8191 44.81 43.1891 44.81C40.8791 44.81 39.7241 43.58 39.7241 41.12C39.7241 40.16 40.2491 38.795 41.2991 37.025C42.3491 35.225 43.4291 33.65 44.5391 32.3C45.6491 30.92 46.3841 30.155 46.7441 30.005C47.2841 29.675 47.8691 29.51 48.4991 29.51C49.1291 29.51 49.7291 29.63 50.2991 29.87C50.4791 29.96 50.5691 30.08 50.5691 30.23C50.5691 30.38 50.4191 30.605 50.1191 30.905C49.8491 31.205 49.4141 31.67 48.8141 32.3C48.2441 32.93 47.3741 34.025 46.2041 35.585C45.0641 37.115 44.2991 38.405 43.9091 39.455ZM62.2603 29.105C62.5003 29.105 62.8903 29.225 63.4303 29.465C64.0003 29.705 64.2853 29.975 64.2853 30.275C64.2853 30.485 64.2103 30.695 64.0603 30.905L60.6853 35.585C60.2953 36.065 60.1003 36.335 60.1003 36.395C60.1003 36.455 60.1153 36.485 60.1453 36.485L60.3703 36.35C63.8503 33.92 66.7153 31.79 68.9653 29.96C69.3853 29.66 69.7303 29.51 70.0003 29.51C70.3003 29.51 70.4953 29.54 70.5853 29.6L71.8453 29.96C72.1453 30.11 72.2953 30.305 72.2953 30.545C72.2953 30.785 72.2353 30.98 72.1153 31.13C71.5453 31.76 70.8853 32.48 70.1353 33.29C69.4153 34.07 68.8753 34.67 68.5153 35.09C68.1553 35.48 67.7503 35.93 67.3003 36.44C66.8503 36.95 66.5203 37.34 66.3103 37.61C66.1303 37.88 65.9203 38.195 65.6803 38.555C65.4403 38.885 65.2753 39.17 65.1853 39.41C65.0053 40.1 64.9153 40.7 64.9153 41.21C64.9153 41.48 65.0803 41.615 65.4103 41.615C65.7703 41.615 66.4003 41.405 67.3003 40.985C68.2303 40.565 69.3253 39.92 70.5853 39.05C71.8753 38.18 73.5703 36.95 75.6703 35.36C77.8003 33.74 79.6603 32.375 81.2503 31.265C81.5203 31.475 81.6553 31.73 81.6553 32.03C81.6553 32.33 81.5203 32.6 81.2503 32.84C80.2903 33.77 79.0753 34.94 77.6053 36.35C76.1353 37.73 73.8853 39.59 70.8553 41.93C67.8553 44.27 65.7553 45.44 64.5553 45.44C62.2453 45.44 61.0903 44.21 61.0903 41.75C61.0903 40.82 61.4503 39.845 62.1703 38.825L64.1053 36.17C64.2853 35.9 64.3753 35.75 64.3753 35.72C64.3753 35.66 64.2853 35.705 64.1053 35.855C58.8853 40.205 55.5553 42.755 54.1153 43.505C53.8753 43.655 53.5753 43.73 53.2153 43.73C52.2253 43.73 51.7303 43.28 51.7303 42.38C51.7303 42.08 51.8053 41.81 51.9553 41.57C54.1753 39.53 55.7353 37.865 56.6353 36.575C57.3553 35.855 58.1053 34.85 58.8853 33.56C59.6953 32.27 60.3703 31.205 60.9103 30.365C61.4803 29.525 61.9303 29.105 62.2603 29.105ZM87.0535 30.41C86.2735 30.41 84.9535 31.22 83.0935 32.84C81.2335 34.43 80.3035 35.405 80.3035 35.765C80.3035 35.825 80.3485 35.855 80.4385 35.855C81.0985 35.855 82.4035 35.12 84.3535 33.65C86.3335 32.18 87.3235 31.175 87.3235 30.635C87.3235 30.485 87.2335 30.41 87.0535 30.41ZM77.4685 44.81C75.1585 44.81 74.0035 43.4 74.0035 40.58C74.0035 38.81 74.7685 36.935 76.2985 34.955C77.8585 32.945 79.6885 31.31 81.7885 30.05C83.8885 28.76 85.7485 28.115 87.3685 28.115C88.0885 28.115 88.7485 28.4 89.3485 28.97C89.9785 29.54 90.2935 30.095 90.2935 30.635C90.2935 31.625 89.5885 32.75 88.1785 34.01C86.7685 35.24 85.2835 36.245 83.7235 37.025C82.1935 37.775 81.1735 38.15 80.6635 38.15C80.1835 38.15 79.8235 37.925 79.5835 37.475C79.4635 37.385 79.2985 37.34 79.0885 37.34C78.8785 37.34 78.5335 37.745 78.0535 38.555C77.5735 39.335 77.3335 39.98 77.3335 40.49C77.3335 40.97 77.5135 41.27 77.8735 41.39C80.1535 41.39 82.6285 40.73 85.2985 39.41C87.9685 38.06 91.6585 35.705 96.3685 32.345C96.6985 32.105 97.1935 31.745 97.8535 31.265C98.5435 30.785 98.9485 30.5 99.0685 30.41C99.3385 30.62 99.4735 30.875 99.4735 31.175C99.4735 31.475 99.3385 31.745 99.0685 31.985C97.5685 33.485 95.6185 35.165 93.2185 37.025C90.8485 38.885 88.1185 40.655 85.0285 42.335C81.9385 43.985 79.4185 44.81 77.4685 44.81ZM98.0001 39.5C100.16 37.04 102.95 33.74 106.37 29.6C109.79 25.46 112.31 22.52 113.93 20.78C115.55 19.04 116.945 17.72 118.115 16.82C120.845 14.78 123.62 13.76 126.44 13.76C127.07 13.76 127.775 14.015 128.555 14.525C129.365 15.035 129.77 15.83 129.77 16.91C129.77 17.96 128.765 19.58 126.755 21.77C125.765 22.85 124.325 23.96 122.435 25.1C120.575 26.21 118.49 27.11 116.18 27.8C115.31 27.95 114.665 28.025 114.245 28.025C113.855 28.025 113.66 27.98 113.66 27.89C113.66 27.8 113.765 27.695 113.975 27.575C116.495 26.195 119.315 24.11 122.435 21.32C125.585 18.53 127.16 16.7 127.16 15.83C127.16 15.71 127.07 15.65 126.89 15.65C126.74 15.65 126.56 15.68 126.35 15.74C126.17 15.8 125.96 15.86 125.72 15.92C125.48 15.98 124.97 16.235 124.19 16.685C123.41 17.105 122.585 17.645 121.715 18.305C120.875 18.935 119.81 19.925 118.52 21.275C117.26 22.595 115.985 24.125 114.695 25.865C109.745 32.795 106.535 37.055 105.065 38.645C104.825 38.915 104.525 39.245 104.165 39.635C104.915 39.725 106.04 39.83 107.54 39.95C109.04 40.07 110.045 40.175 110.555 40.265C111.095 40.325 111.875 40.475 112.895 40.715C113.915 40.955 114.725 41.255 115.325 41.615C116.885 42.575 118.385 43.88 119.825 45.53C120.155 45.89 120.32 46.13 120.32 46.25C120.32 46.37 120.275 46.43 120.185 46.43C120.035 46.43 119.84 46.37 119.6 46.25C119.15 46.13 118.49 45.965 117.62 45.755C116.78 45.545 114.95 45.275 112.13 44.945C109.31 44.615 106.715 44.45 104.345 44.45C102.005 44.45 100.295 44.465 99.2151 44.495C97.6251 45.995 95.3901 47.39 92.5101 48.68C89.6301 49.97 87.4701 50.615 86.0301 50.615C84.5601 50.615 83.1801 50.225 81.8901 49.445C80.6001 48.695 79.9551 47.675 79.9551 46.385C79.9551 45.455 80.6601 44.435 82.0701 43.325C85.3101 40.775 90.6201 39.5 98.0001 39.5ZM82.4301 47.69C82.4301 47.99 82.7901 48.185 83.5101 48.275C84.4401 48.275 85.2351 48.215 85.8951 48.095C86.5551 48.005 87.5301 47.675 88.8201 47.105C90.0801 46.535 91.4151 45.695 92.8251 44.585C90.9051 44.585 88.7001 44.93 86.2101 45.62C83.6901 46.31 82.4301 47 82.4301 47.69ZM134.382 21.725C134.682 21.725 134.877 21.785 134.967 21.905C135.387 22.415 135.597 22.835 135.597 23.165C135.597 23.465 135.507 23.735 135.327 23.975C135.147 24.185 134.922 24.44 134.652 24.74C134.412 25.01 133.902 25.4 133.122 25.91C132.372 26.39 131.637 26.63 130.917 26.63C130.377 26.54 130.107 26.21 130.107 25.64C130.107 24.74 130.647 23.87 131.727 23.03C132.807 22.16 133.692 21.725 134.382 21.725ZM123.582 39.455C123.342 39.875 123.222 40.25 123.222 40.58C123.222 40.91 123.402 41.075 123.762 41.075C123.972 41.075 124.332 40.985 124.842 40.805C130.452 37.865 135.942 34.4 141.312 30.41C141.582 30.62 141.717 30.875 141.717 31.175C141.717 31.475 141.567 31.76 141.267 32.03C140.967 32.3 140.532 32.69 139.962 33.2C139.422 33.71 138.372 34.625 136.812 35.945C135.252 37.265 133.797 38.465 132.447 39.545C128.907 42.395 126.297 44.075 124.617 44.585C124.077 44.735 123.492 44.81 122.862 44.81C120.552 44.81 119.397 43.58 119.397 41.12C119.397 40.16 119.922 38.795 120.972 37.025C122.022 35.225 123.102 33.65 124.212 32.3C125.322 30.92 126.057 30.155 126.417 30.005C126.957 29.675 127.542 29.51 128.172 29.51C128.802 29.51 129.402 29.63 129.972 29.87C130.152 29.96 130.242 30.08 130.242 30.23C130.242 30.38 130.092 30.605 129.792 30.905C129.522 31.205 129.087 31.67 128.487 32.3C127.917 32.93 127.047 34.025 125.877 35.585C124.737 37.115 123.972 38.405 123.582 39.455ZM137.784 40.715C138.834 40.715 139.794 40.085 140.664 38.825C141.564 37.535 142.194 36.245 142.554 34.955C142.914 33.635 143.094 32.585 143.094 31.805C143.094 31.595 142.929 31.49 142.599 31.49C142.299 31.49 141.939 31.655 141.519 31.985L135.624 36.53C135.204 36.77 134.724 36.89 134.184 36.89C133.644 36.89 133.374 36.695 133.374 36.305C133.374 36.035 133.404 35.855 133.464 35.765C133.554 35.675 133.779 35.525 134.139 35.315C136.359 33.785 139.389 31.295 143.229 27.845C143.679 27.245 144.084 26.945 144.444 26.945C144.804 26.945 145.404 27.065 146.244 27.305C147.084 27.515 147.504 27.77 147.504 28.07C147.504 29.87 147.339 31.505 147.009 32.975C146.679 34.445 146.334 35.57 145.974 36.35C145.644 37.1 145.479 37.505 145.479 37.565C145.479 37.625 145.509 37.655 145.569 37.655C145.629 37.655 145.749 37.61 145.929 37.52C148.179 36.38 151.044 34.52 154.524 31.94L155.604 31.13C155.874 31.34 156.009 31.595 156.009 31.895C156.009 32.195 155.874 32.465 155.604 32.705C155.544 32.705 154.764 33.335 153.264 34.595C151.794 35.855 150.144 37.235 148.314 38.735C146.514 40.205 144.579 41.555 142.509 42.785C140.439 44.015 138.834 44.63 137.694 44.63C134.874 44.63 133.464 42.935 133.464 39.545C133.464 39.275 133.569 39.035 133.779 38.825C134.019 38.585 134.319 38.465 134.679 38.465C134.679 38.615 134.754 38.855 134.904 39.185C135.084 39.485 135.264 39.74 135.444 39.95C135.984 40.46 136.764 40.715 137.784 40.715ZM168.773 23.21L171.068 23.165C174.038 23.165 176.198 23.585 177.548 24.425C178.208 24.635 178.538 24.905 178.538 25.235C178.538 25.475 178.238 25.64 177.638 25.73C177.068 25.82 175.043 26.06 171.563 26.45C168.113 26.81 165.743 27.02 164.453 27.08C163.883 27.11 162.563 28.1 160.493 30.05C158.453 32 156.503 34.145 154.643 36.485C152.783 38.825 151.853 40.46 151.853 41.39C151.853 41.54 151.928 41.675 152.078 41.795C152.228 41.885 152.408 41.93 152.618 41.93C152.858 41.93 153.218 41.84 153.698 41.66C159.398 38.3 164.933 34.625 170.303 30.635C170.573 30.845 170.708 31.1 170.708 31.4C170.708 31.7 170.558 32 170.258 32.3C169.958 32.57 169.508 32.975 168.908 33.515C168.338 34.055 167.258 35.03 165.668 36.44C164.078 37.85 162.578 39.11 161.168 40.22C157.388 43.28 154.748 45.05 153.248 45.53C152.708 45.68 152.063 45.755 151.313 45.755C150.593 45.755 149.918 45.38 149.288 44.63C148.688 43.88 148.388 42.86 148.388 41.57C148.388 40.28 149.213 38.42 150.863 35.99C152.543 33.56 154.823 31.07 157.703 28.52C157.973 28.31 158.108 28.115 158.108 27.935C158.108 27.755 157.793 27.665 157.163 27.665L154.328 27.755C150.338 27.755 148.283 27.305 148.163 26.405C147.233 26.225 146.768 25.955 146.768 25.595C146.768 25.475 146.828 25.415 146.948 25.415C147.068 25.385 147.173 25.37 147.263 25.37C147.353 25.34 147.503 25.31 147.713 25.28C147.923 25.25 149.573 25.01 152.663 24.56C155.783 24.11 159.323 23.735 163.283 23.435L166.388 19.295C166.568 18.935 167.198 18.755 168.278 18.755C169.358 18.755 169.898 18.98 169.898 19.43C169.898 19.58 169.778 19.85 169.538 20.24L168.413 21.815C168.263 22.295 168.173 22.655 168.143 22.895C168.143 23.105 168.353 23.21 168.773 23.21Z" fill="#A34D4D"/>
</svg>
