<svg xmlns="http://www.w3.org/2000/svg" width="219" height="65" fill="none" viewBox="0 0 219 65"><path fill="#F0D3D3" d="M3.325 29.935C3.235 30.205 3.1 30.34 2.92 30.34C2.74 30.34 2.65 30.115 2.65 29.665C2.65 29.215 3.04 28.42 3.82 27.28C4.6 26.11 5.725 24.865 7.195 23.545C8.695 22.195 10.36 20.92 12.19 19.72C14.02 18.52 16.135 17.53 18.535 16.75C20.965 15.94 23.365 15.535 25.735 15.535C25.975 15.625 26.275 15.745 26.635 15.895C27.025 16.015 27.52 16.3 28.12 16.75C28.75 17.17 29.065 17.56 29.065 17.92C29.065 18.28 28.99 18.55 28.84 18.73C26.53 20.83 23.935 23.365 21.055 26.335C18.205 29.305 16.015 31.78 14.485 33.76L11.245 37.99C11.065 38.26 10.975 38.47 10.975 38.62V38.665L11.695 38.305C11.755 38.275 11.8 38.245 11.83 38.215C22.78 30.505 30.115 25.045 33.835 21.835C33.925 21.715 34.045 21.655 34.195 21.655C34.345 21.655 34.45 21.7 34.51 21.79C34.57 21.88 34.855 22.165 35.365 22.645C35.875 23.095 36.13 23.44 36.13 23.68C36.13 23.89 36.04 24.07 35.86 24.22C32.89 27.04 29.86 30.58 26.77 34.84C23.68 39.1 22.135 42.385 22.135 44.695C22.135 44.965 22.27 45.1 22.54 45.1C23.14 45.1 24.55 44.29 26.77 42.67C28.99 41.05 31.51 38.995 34.33 36.505C37.18 34.015 40.18 30.97 43.33 27.37C46.51 23.74 49.105 20.215 51.115 16.795C51.385 16.225 51.595 15.76 51.745 15.4C51.895 15.01 52.12 14.815 52.42 14.815C52.75 14.815 53.08 15.265 53.41 16.165C53.77 17.035 53.95 17.8 53.95 18.46C53.95 19.51 52.75 21.61 50.35 24.76C47.95 27.91 45.145 31.165 41.935 34.525C38.725 37.885 35.32 40.885 31.72 43.525C28.12 46.135 25.285 47.44 23.215 47.44C22.225 47.44 21.235 47.05 20.245 46.27C19.285 45.49 18.805 44.23 18.805 42.49C18.805 40.33 19.45 38.11 20.74 35.83C21.25 34.93 21.865 34.12 22.585 33.4L23.62 32.185L23.8 31.825V31.78C23.8 31.72 23.785 31.69 23.755 31.69C23.665 31.69 23.53 31.78 23.35 31.96C16.66 37.84 12.13 41.755 9.76 43.705C7.39 45.625 5.995 46.585 5.575 46.585C5.155 46.585 4.81 46.375 4.54 45.955C4.42 45.805 4.285 45.655 4.135 45.505C4.015 45.325 3.925 45.205 3.865 45.145C3.805 45.055 3.745 44.98 3.685 44.92C3.625 44.83 3.58 44.77 3.55 44.74C3.52 44.59 3.505 44.365 3.505 44.065C3.505 43.765 3.61 43.33 3.82 42.76C4.03 42.19 4.225 41.65 4.405 41.14C4.615 40.6 5.185 39.49 6.115 37.81C7.045 36.1 8.155 34.39 9.445 32.68C10.735 30.94 12.625 28.825 15.115 26.335C17.605 23.845 20.395 21.445 23.485 19.135C24.055 18.685 24.34 18.4 24.34 18.28C24.34 18.16 24.28 18.1 24.16 18.1C21.91 18.1 18.16 19.6 12.91 22.6C7.69 25.6 4.495 28.045 3.325 29.935ZM56.7091 23.725C57.0091 23.725 57.2041 23.785 57.2941 23.905C57.7141 24.415 57.9241 24.835 57.9241 25.165C57.9241 25.465 57.8341 25.735 57.6541 25.975C57.4741 26.185 57.2491 26.44 56.9791 26.74C56.7391 27.01 56.2291 27.4 55.4491 27.91C54.6991 28.39 53.9641 28.63 53.2441 28.63C52.7041 28.54 52.4341 28.21 52.4341 27.64C52.4341 26.74 52.9741 25.87 54.0541 25.03C55.1341 24.16 56.0191 23.725 56.7091 23.725ZM45.9091 41.455C45.6691 41.875 45.5491 42.25 45.5491 42.58C45.5491 42.91 45.7291 43.075 46.0891 43.075C46.2991 43.075 46.6591 42.985 47.1691 42.805C52.7791 39.865 58.2691 36.4 63.6391 32.41C63.9091 32.62 64.0441 32.875 64.0441 33.175C64.0441 33.475 63.8941 33.76 63.5941 34.03C63.2941 34.3 62.8591 34.69 62.2891 35.2C61.7491 35.71 60.6991 36.625 59.1391 37.945C57.5791 39.265 56.1241 40.465 54.7741 41.545C51.2341 44.395 48.6241 46.075 46.9441 46.585C46.4041 46.735 45.8191 46.81 45.1891 46.81C42.8791 46.81 41.7241 45.58 41.7241 43.12C41.7241 42.16 42.2491 40.795 43.2991 39.025C44.3491 37.225 45.4291 35.65 46.5391 34.3C47.6491 32.92 48.3841 32.155 48.7441 32.005C49.2841 31.675 49.8691 31.51 50.4991 31.51C51.1291 31.51 51.7291 31.63 52.2991 31.87C52.4791 31.96 52.5691 32.08 52.5691 32.23C52.5691 32.38 52.4191 32.605 52.1191 32.905C51.8491 33.205 51.4141 33.67 50.8141 34.3C50.2441 34.93 49.3741 36.025 48.2041 37.585C47.0641 39.115 46.2991 40.405 45.9091 41.455ZM64.2603 31.105C64.5003 31.105 64.8903 31.225 65.4303 31.465C66.0003 31.705 66.2853 31.975 66.2853 32.275C66.2853 32.485 66.2103 32.695 66.0603 32.905L62.6853 37.585C62.2953 38.065 62.1003 38.335 62.1003 38.395C62.1003 38.455 62.1153 38.485 62.1453 38.485L62.3703 38.35C65.8503 35.92 68.7153 33.79 70.9653 31.96C71.3853 31.66 71.7303 31.51 72.0003 31.51C72.3003 31.51 72.4953 31.54 72.5853 31.6L73.8453 31.96C74.1453 32.11 74.2953 32.305 74.2953 32.545C74.2953 32.785 74.2353 32.98 74.1153 33.13C73.5453 33.76 72.8853 34.48 72.1353 35.29C71.4153 36.07 70.8753 36.67 70.5153 37.09C70.1553 37.48 69.7503 37.93 69.3003 38.44C68.8503 38.95 68.5203 39.34 68.3103 39.61C68.1303 39.88 67.9203 40.195 67.6803 40.555C67.4403 40.885 67.2753 41.17 67.1853 41.41C67.0053 42.1 66.9153 42.7 66.9153 43.21C66.9153 43.48 67.0803 43.615 67.4103 43.615C67.7703 43.615 68.4003 43.405 69.3003 42.985C70.2303 42.565 71.3253 41.92 72.5853 41.05C73.8753 40.18 75.5703 38.95 77.6703 37.36C79.8003 35.74 81.6603 34.375 83.2503 33.265C83.5203 33.475 83.6553 33.73 83.6553 34.03C83.6553 34.33 83.5203 34.6 83.2503 34.84C82.2903 35.77 81.0753 36.94 79.6053 38.35C78.1353 39.73 75.8853 41.59 72.8553 43.93C69.8553 46.27 67.7553 47.44 66.5553 47.44C64.2453 47.44 63.0903 46.21 63.0903 43.75C63.0903 42.82 63.4503 41.845 64.1703 40.825L66.1053 38.17C66.2853 37.9 66.3753 37.75 66.3753 37.72C66.3753 37.66 66.2853 37.705 66.1053 37.855C60.8853 42.205 57.5553 44.755 56.1153 45.505C55.8753 45.655 55.5753 45.73 55.2153 45.73C54.2253 45.73 53.7303 45.28 53.7303 44.38C53.7303 44.08 53.8053 43.81 53.9553 43.57C56.1753 41.53 57.7353 39.865 58.6353 38.575C59.3553 37.855 60.1053 36.85 60.8853 35.56C61.6953 34.27 62.3703 33.205 62.9103 32.365C63.4803 31.525 63.9303 31.105 64.2603 31.105ZM89.0535 32.41C88.2735 32.41 86.9535 33.22 85.0935 34.84C83.2335 36.43 82.3035 37.405 82.3035 37.765C82.3035 37.825 82.3485 37.855 82.4385 37.855C83.0985 37.855 84.4035 37.12 86.3535 35.65C88.3335 34.18 89.3235 33.175 89.3235 32.635C89.3235 32.485 89.2335 32.41 89.0535 32.41ZM79.4685 46.81C77.1585 46.81 76.0035 45.4 76.0035 42.58C76.0035 40.81 76.7685 38.935 78.2985 36.955C79.8585 34.945 81.6885 33.31 83.7885 32.05C85.8885 30.76 87.7485 30.115 89.3685 30.115C90.0885 30.115 90.7485 30.4 91.3485 30.97C91.9785 31.54 92.2935 32.095 92.2935 32.635C92.2935 33.625 91.5885 34.75 90.1785 36.01C88.7685 37.24 87.2835 38.245 85.7235 39.025C84.1935 39.775 83.1735 40.15 82.6635 40.15C82.1835 40.15 81.8235 39.925 81.5835 39.475C81.4635 39.385 81.2985 39.34 81.0885 39.34C80.8785 39.34 80.5335 39.745 80.0535 40.555C79.5735 41.335 79.3335 41.98 79.3335 42.49C79.3335 42.97 79.5135 43.27 79.8735 43.39C82.1535 43.39 84.6285 42.73 87.2985 41.41C89.9685 40.06 93.6585 37.705 98.3685 34.345C98.6985 34.105 99.1935 33.745 99.8535 33.265C100.544 32.785 100.949 32.5 101.069 32.41C101.339 32.62 101.474 32.875 101.474 33.175C101.474 33.475 101.339 33.745 101.069 33.985C99.5685 35.485 97.6185 37.165 95.2185 39.025C92.8485 40.885 90.1185 42.655 87.0285 44.335C83.9385 45.985 81.4185 46.81 79.4685 46.81ZM106.165 22.105C109.075 20.095 112.39 18.505 116.11 17.335C119.83 16.165 122.905 15.58 125.335 15.58C127.765 15.58 129.715 15.85 131.185 16.39C132.685 16.9 133.765 17.56 134.425 18.37C135.535 19.75 136.09 20.95 136.09 21.97C136.09 23.2 135.235 24.64 133.525 26.29C132.655 27.13 131.425 28.06 129.835 29.08L129.34 29.35C129.13 29.41 129.025 29.5 129.025 29.62L129.295 29.845C130.465 30.325 131.35 30.895 131.95 31.555C132.58 32.215 132.895 33.19 132.895 34.48C132.895 36.25 132.1 37.945 130.51 39.565C128.95 41.155 127.105 42.445 124.975 43.435C122.845 44.395 120.85 45.16 118.99 45.73C117.13 46.3 115.795 46.585 114.985 46.585C114.205 46.585 113.5 46.48 112.87 46.27C112.24 46.09 111.73 45.865 111.34 45.595C110.53 45.025 109.96 44.44 109.63 43.84C109.51 43.69 109.405 43.615 109.315 43.615C109.105 43.615 108.715 44.275 108.145 45.595C107.575 46.915 107.275 47.575 107.245 47.575V47.53C107.155 47.83 107.005 47.98 106.795 47.98C106.315 47.98 105.85 47.53 105.4 46.63C104.98 45.76 104.77 45.085 104.77 44.605C104.77 44.095 105.07 43.255 105.67 42.085C106.27 40.885 106.87 39.865 107.47 39.025L108.37 37.765C109.06 36.265 111.91 33.13 116.92 28.36C121.93 23.59 124.765 21.205 125.425 21.205C125.725 21.205 125.965 21.31 126.145 21.52C126.355 21.7 126.52 21.985 126.64 22.375C126.64 22.615 126.505 22.81 126.235 22.96L119.89 29.8C119.83 29.92 119.8 30.01 119.8 30.07C119.8 30.1 119.845 30.115 119.935 30.115C120.595 30.115 122.095 29.605 124.435 28.585C126.775 27.565 129.04 26.32 131.23 24.85C133.45 23.38 134.56 22.165 134.56 21.205C134.56 20.155 132.46 19.63 128.26 19.63C125.59 19.63 122.95 19.93 120.34 20.53C117.76 21.1 115.54 21.805 113.68 22.645C111.85 23.455 110.2 24.31 108.73 25.21C107.26 26.11 106.165 26.89 105.445 27.55C104.725 28.21 104.365 28.63 104.365 28.81C104.365 28.99 104.44 29.08 104.59 29.08C105.55 29.08 107.125 28.57 109.315 27.55C111.535 26.5 112.885 25.81 113.365 25.48C113.845 25.12 114.145 24.94 114.265 24.94C114.415 24.94 114.535 25.015 114.625 25.165C113.515 26.995 111.985 28.555 110.035 29.845C108.115 31.105 106.615 31.735 105.535 31.735C104.455 31.735 103.555 31.3 102.835 30.43C102.145 29.53 101.8 28.75 101.8 28.09C101.8 26.08 103.255 24.085 106.165 22.105ZM130.69 32.725C130.69 32.425 130.495 32.185 130.105 32.005C129.745 31.825 129.37 31.72 128.98 31.69H128.395C126.505 31.69 124.105 32.11 121.195 32.95C120.205 33.22 119.59 33.355 119.35 33.355C119.11 33.355 118.9 33.265 118.72 33.085C118.57 32.905 118.45 32.74 118.36 32.59C118.3 32.41 118.195 32.32 118.045 32.32C117.865 32.32 117.67 32.425 117.46 32.635L109.675 43.03V43.075C109.825 43.345 110.125 43.48 110.575 43.48H111.115C113.365 43.48 116.05 42.865 119.17 41.635C122.29 40.375 124.99 38.89 127.27 37.18C129.55 35.44 130.69 33.955 130.69 32.725ZM136.423 44.02C137.383 44.02 138.568 43.39 139.978 42.13C141.388 40.87 142.123 40 142.183 39.52C141.823 39.22 141.433 38.68 141.013 37.9C140.623 37.09 140.413 36.685 140.383 36.685C139.453 37.555 138.628 38.56 137.908 39.7C136.768 41.62 136.198 42.94 136.198 43.66C136.198 43.9 136.273 44.02 136.423 44.02ZM146.143 32.995C145.843 32.995 145.213 33.46 144.253 34.39C143.323 35.32 142.858 35.965 142.858 36.325C142.858 36.415 142.948 36.595 143.128 36.865C143.308 37.135 143.443 37.27 143.533 37.27C144.043 37.27 144.613 36.655 145.243 35.425C145.903 34.195 146.233 33.49 146.233 33.31C146.233 33.1 146.203 32.995 146.143 32.995ZM146.233 38.8C147.073 38.8 148.378 38.29 150.148 37.27C151.948 36.25 153.523 35.23 154.873 34.21L156.898 32.635C157.168 32.845 157.303 33.1 157.303 33.4C157.303 33.7 157.168 33.97 156.898 34.21C151.948 38.8 148.198 41.095 145.648 41.095C145.468 41.095 145.198 41.065 144.838 41.005C141.448 44.935 138.538 46.9 136.108 46.9C134.488 46.66 133.468 46.09 133.048 45.19C132.808 44.74 132.688 44.17 132.688 43.48C132.688 41.5 133.828 39.145 136.108 36.415C138.388 33.655 141.253 31.63 144.703 30.34C145.003 30.34 145.228 30.415 145.378 30.565C145.528 30.685 145.663 30.76 145.783 30.79C145.903 30.79 146.053 30.73 146.233 30.61C146.443 30.46 146.713 30.385 147.043 30.385C147.373 30.355 147.718 30.535 148.078 30.925C148.558 31.315 148.798 31.795 148.798 32.365C148.798 34.045 147.943 36.19 146.233 38.8ZM156.634 44.11L156.994 41.23C156.994 41.14 156.964 41.095 156.904 41.095C156.874 41.095 156.799 41.155 156.679 41.275C156.289 41.695 155.794 42.22 155.194 42.85C154.594 43.45 153.559 44.275 152.089 45.325C150.649 46.345 149.479 46.855 148.579 46.855C148.429 46.825 148.249 46.765 148.039 46.675C147.799 46.615 147.499 46.375 147.139 45.955C146.779 45.535 146.599 44.935 146.599 44.155C146.599 43.375 147.199 42.19 148.399 40.6C149.569 38.98 150.979 37.405 152.629 35.875C154.279 34.315 156.109 32.965 158.119 31.825C160.159 30.685 161.929 30.115 163.429 30.115C163.999 30.145 164.449 30.55 164.779 31.33C165.079 31.03 165.349 30.88 165.589 30.88C165.829 30.88 166.114 31.06 166.444 31.42C166.624 31.45 166.804 31.555 166.984 31.735C167.164 31.885 167.254 32.11 167.254 32.41C167.254 32.71 167.044 33.04 166.624 33.4C165.994 34.18 165.259 35.065 164.419 36.055C163.579 37.045 162.979 37.765 162.619 38.215C162.259 38.635 161.884 39.115 161.494 39.655C160.834 40.585 160.474 41.335 160.414 41.905C163.474 40.435 168.289 37.27 174.859 32.41C175.129 32.62 175.264 32.875 175.264 33.175C175.264 33.475 175.144 33.73 174.904 33.94C174.664 34.15 174.364 34.405 174.004 34.705C173.674 35.005 172.999 35.59 171.979 36.46C170.959 37.33 169.969 38.17 169.009 38.98C168.079 39.76 166.999 40.645 165.769 41.635C164.569 42.595 163.489 43.42 162.529 44.11C160.219 45.76 158.779 46.585 158.209 46.585C157.639 46.585 157.234 46.405 156.994 46.045C156.754 45.685 156.634 45.04 156.634 44.11ZM152.044 42.22C152.404 42.22 153.499 41.485 155.329 40.015C157.189 38.545 158.944 37.075 160.594 35.605L163.114 33.4C163.234 33.28 163.294 33.205 163.294 33.175C163.294 33.115 163.249 33.085 163.159 33.085C162.019 33.085 160.534 33.745 158.704 35.065C156.874 36.355 155.284 37.735 153.934 39.205C152.614 40.645 151.954 41.62 151.954 42.13C151.954 42.19 151.984 42.22 152.044 42.22ZM167.735 37.585C169.385 36.445 171.11 35.215 172.91 33.895C171.95 33.235 171.335 32.59 171.065 31.96C170.975 31.75 170.93 31.6 170.93 31.51C170.93 30.91 171.125 30.52 171.515 30.34C171.905 30.13 172.535 30.025 173.405 30.025C173.735 30.025 174.71 30.43 176.33 31.24C177.95 32.05 178.97 32.455 179.39 32.455C179.84 32.455 180.455 32.335 181.235 32.095C182.015 31.825 182.63 31.69 183.08 31.69C183.56 31.69 183.905 31.795 184.115 32.005C184.865 32.995 185.24 33.595 185.24 33.805C185.24 34.015 185.135 34.195 184.925 34.345C184.745 34.465 184.13 34.885 183.08 35.605C182.06 36.325 181.055 37.06 180.065 37.81C179.075 38.56 178.145 39.4 177.275 40.33C176.405 41.26 175.97 42.01 175.97 42.58C175.97 42.67 176.045 42.715 176.195 42.715C177.815 42.715 183.275 39.43 192.575 32.86C192.785 32.86 192.89 33.055 192.89 33.445C192.89 33.805 191.705 35.095 189.335 37.315C186.965 39.505 184.28 41.665 181.28 43.795C178.31 45.895 176.15 46.945 174.8 46.945C172.7 46.945 171.65 45.895 171.65 43.795C171.65 42.655 172.025 41.56 172.775 40.51C173.555 39.43 175.175 37.99 177.635 36.19C177.125 36.19 176.435 36.07 175.565 35.83C174.695 35.56 174.14 35.245 173.9 34.885C173.12 35.575 171.77 36.73 169.85 38.35C169.4 38.68 168.815 38.845 168.095 38.845C167.375 38.845 167.015 38.74 167.015 38.53C167.015 38.29 167.255 37.975 167.735 37.585ZM188.302 42.22C188.662 42.22 189.757 41.485 191.587 40.015C193.447 38.545 195.217 37.075 196.897 35.605L199.372 33.4C199.492 33.28 199.552 33.205 199.552 33.175C199.552 33.115 199.507 33.085 199.417 33.085C198.277 33.085 196.792 33.745 194.962 35.065C193.132 36.355 191.542 37.735 190.192 39.205C188.872 40.645 188.212 41.62 188.212 42.13C188.212 42.19 188.242 42.22 188.302 42.22ZM196.087 42.895C196.087 42.985 196.177 43.03 196.357 43.03C196.567 43.03 197.452 42.58 199.012 41.68C203.092 39.37 207.892 36.28 213.412 32.41C213.682 32.62 213.817 32.875 213.817 33.175C213.817 33.475 213.667 33.76 213.367 34.03C213.067 34.3 212.632 34.69 212.062 35.2C211.522 35.71 210.472 36.625 208.912 37.945C207.352 39.265 205.897 40.465 204.547 41.545C201.007 44.395 198.397 46.075 196.717 46.585C196.177 46.735 195.592 46.81 194.962 46.81C194.362 46.72 193.807 46.495 193.297 46.135C192.817 45.775 192.577 45.355 192.577 44.875C192.577 44.395 192.682 43.69 192.892 42.76C193.132 41.8 193.252 41.29 193.252 41.23C193.252 41.14 193.222 41.095 193.162 41.095C193.132 41.095 193.057 41.155 192.937 41.275C192.547 41.695 192.052 42.22 191.452 42.85C190.852 43.45 189.817 44.275 188.347 45.325C186.907 46.345 185.737 46.855 184.837 46.855C184.687 46.825 184.507 46.765 184.297 46.675C184.057 46.615 183.757 46.375 183.397 45.955C183.037 45.535 182.857 44.935 182.857 44.155C182.857 43.375 183.442 42.19 184.612 40.6C185.782 38.98 187.207 37.405 188.887 35.875C190.567 34.315 192.412 32.965 194.422 31.825C196.432 30.685 198.187 30.115 199.687 30.115C200.227 30.115 200.677 30.52 201.037 31.33C201.007 31.12 201.982 29.77 203.962 27.28C205.942 24.76 208.282 22.24 210.982 19.72C213.712 17.17 215.827 15.895 217.327 15.895C217.837 15.895 218.092 16.135 218.092 16.615C218.092 17.365 217.582 18.385 216.562 19.675C215.572 20.965 214.492 22.165 213.322 23.275C212.182 24.385 210.697 25.78 208.867 27.46C204.637 31.3 201.442 34.57 199.282 37.27C197.152 39.97 196.087 41.845 196.087 42.895Z"/><path fill="#A34D4D" d="M1.325 27.935C1.235 28.205 1.1 28.34 0.92 28.34C0.74 28.34 0.65 28.115 0.65 27.665C0.65 27.215 1.04 26.42 1.82 25.28C2.6 24.11 3.725 22.865 5.195 21.545C6.695 20.195 8.36 18.92 10.19 17.72C12.02 16.52 14.135 15.53 16.535 14.75C18.965 13.94 21.365 13.535 23.735 13.535C23.975 13.625 24.275 13.745 24.635 13.895C25.025 14.015 25.52 14.3 26.12 14.75C26.75 15.17 27.065 15.56 27.065 15.92C27.065 16.28 26.99 16.55 26.84 16.73C24.53 18.83 21.935 21.365 19.055 24.335C16.205 27.305 14.015 29.78 12.485 31.76L9.245 35.99C9.065 36.26 8.975 36.47 8.975 36.62V36.665L9.695 36.305C9.755 36.275 9.8 36.245 9.83 36.215C20.78 28.505 28.115 23.045 31.835 19.835C31.925 19.715 32.045 19.655 32.195 19.655C32.345 19.655 32.45 19.7 32.51 19.79C32.57 19.88 32.855 20.165 33.365 20.645C33.875 21.095 34.13 21.44 34.13 21.68C34.13 21.89 34.04 22.07 33.86 22.22C30.89 25.04 27.86 28.58 24.77 32.84C21.68 37.1 20.135 40.385 20.135 42.695C20.135 42.965 20.27 43.1 20.54 43.1C21.14 43.1 22.55 42.29 24.77 40.67C26.99 39.05 29.51 36.995 32.33 34.505C35.18 32.015 38.18 28.97 41.33 25.37C44.51 21.74 47.105 18.215 49.115 14.795C49.385 14.225 49.595 13.76 49.745 13.4C49.895 13.01 50.12 12.815 50.42 12.815C50.75 12.815 51.08 13.265 51.41 14.165C51.77 15.035 51.95 15.8 51.95 16.46C51.95 17.51 50.75 19.61 48.35 22.76C45.95 25.91 43.145 29.165 39.935 32.525C36.725 35.885 33.32 38.885 29.72 41.525C26.12 44.135 23.285 45.44 21.215 45.44C20.225 45.44 19.235 45.05 18.245 44.27C17.285 43.49 16.805 42.23 16.805 40.49C16.805 38.33 17.45 36.11 18.74 33.83C19.25 32.93 19.865 32.12 20.585 31.4L21.62 30.185L21.8 29.825V29.78C21.8 29.72 21.785 29.69 21.755 29.69C21.665 29.69 21.53 29.78 21.35 29.96C14.66 35.84 10.13 39.755 7.76 41.705C5.39 43.625 3.995 44.585 3.575 44.585C3.155 44.585 2.81 44.375 2.54 43.955C2.42 43.805 2.285 43.655 2.135 43.505C2.015 43.325 1.925 43.205 1.865 43.145C1.805 43.055 1.745 42.98 1.685 42.92C1.625 42.83 1.58 42.77 1.55 42.74C1.52 42.59 1.505 42.365 1.505 42.065C1.505 41.765 1.61 41.33 1.82 40.76C2.03 40.19 2.225 39.65 2.405 39.14C2.615 38.6 3.185 37.49 4.115 35.81C5.045 34.1 6.155 32.39 7.445 30.68C8.735 28.94 10.625 26.825 13.115 24.335C15.605 21.845 18.395 19.445 21.485 17.135C22.055 16.685 22.34 16.4 22.34 16.28C22.34 16.16 22.28 16.1 22.16 16.1C19.91 16.1 16.16 17.6 10.91 20.6C5.69 23.6 2.495 26.045 1.325 27.935ZM54.7091 21.725C55.0091 21.725 55.2041 21.785 55.2941 21.905C55.7141 22.415 55.9241 22.835 55.9241 23.165C55.9241 23.465 55.8341 23.735 55.6541 23.975C55.4741 24.185 55.2491 24.44 54.9791 24.74C54.7391 25.01 54.2291 25.4 53.4491 25.91C52.6991 26.39 51.9641 26.63 51.2441 26.63C50.7041 26.54 50.4341 26.21 50.4341 25.64C50.4341 24.74 50.9741 23.87 52.0541 23.03C53.1341 22.16 54.0191 21.725 54.7091 21.725ZM43.9091 39.455C43.6691 39.875 43.5491 40.25 43.5491 40.58C43.5491 40.91 43.7291 41.075 44.0891 41.075C44.2991 41.075 44.6591 40.985 45.1691 40.805C50.7791 37.865 56.2691 34.4 61.6391 30.41C61.9091 30.62 62.0441 30.875 62.0441 31.175C62.0441 31.475 61.8941 31.76 61.5941 32.03C61.2941 32.3 60.8591 32.69 60.2891 33.2C59.7491 33.71 58.6991 34.625 57.1391 35.945C55.5791 37.265 54.1241 38.465 52.7741 39.545C49.2341 42.395 46.6241 44.075 44.9441 44.585C44.4041 44.735 43.8191 44.81 43.1891 44.81C40.8791 44.81 39.7241 43.58 39.7241 41.12C39.7241 40.16 40.2491 38.795 41.2991 37.025C42.3491 35.225 43.4291 33.65 44.5391 32.3C45.6491 30.92 46.3841 30.155 46.7441 30.005C47.2841 29.675 47.8691 29.51 48.4991 29.51C49.1291 29.51 49.7291 29.63 50.2991 29.87C50.4791 29.96 50.5691 30.08 50.5691 30.23C50.5691 30.38 50.4191 30.605 50.1191 30.905C49.8491 31.205 49.4141 31.67 48.8141 32.3C48.2441 32.93 47.3741 34.025 46.2041 35.585C45.0641 37.115 44.2991 38.405 43.9091 39.455ZM62.2603 29.105C62.5003 29.105 62.8903 29.225 63.4303 29.465C64.0003 29.705 64.2853 29.975 64.2853 30.275C64.2853 30.485 64.2103 30.695 64.0603 30.905L60.6853 35.585C60.2953 36.065 60.1003 36.335 60.1003 36.395C60.1003 36.455 60.1153 36.485 60.1453 36.485L60.3703 36.35C63.8503 33.92 66.7153 31.79 68.9653 29.96C69.3853 29.66 69.7303 29.51 70.0003 29.51C70.3003 29.51 70.4953 29.54 70.5853 29.6L71.8453 29.96C72.1453 30.11 72.2953 30.305 72.2953 30.545C72.2953 30.785 72.2353 30.98 72.1153 31.13C71.5453 31.76 70.8853 32.48 70.1353 33.29C69.4153 34.07 68.8753 34.67 68.5153 35.09C68.1553 35.48 67.7503 35.93 67.3003 36.44C66.8503 36.95 66.5203 37.34 66.3103 37.61C66.1303 37.88 65.9203 38.195 65.6803 38.555C65.4403 38.885 65.2753 39.17 65.1853 39.41C65.0053 40.1 64.9153 40.7 64.9153 41.21C64.9153 41.48 65.0803 41.615 65.4103 41.615C65.7703 41.615 66.4003 41.405 67.3003 40.985C68.2303 40.565 69.3253 39.92 70.5853 39.05C71.8753 38.18 73.5703 36.95 75.6703 35.36C77.8003 33.74 79.6603 32.375 81.2503 31.265C81.5203 31.475 81.6553 31.73 81.6553 32.03C81.6553 32.33 81.5203 32.6 81.2503 32.84C80.2903 33.77 79.0753 34.94 77.6053 36.35C76.1353 37.73 73.8853 39.59 70.8553 41.93C67.8553 44.27 65.7553 45.44 64.5553 45.44C62.2453 45.44 61.0903 44.21 61.0903 41.75C61.0903 40.82 61.4503 39.845 62.1703 38.825L64.1053 36.17C64.2853 35.9 64.3753 35.75 64.3753 35.72C64.3753 35.66 64.2853 35.705 64.1053 35.855C58.8853 40.205 55.5553 42.755 54.1153 43.505C53.8753 43.655 53.5753 43.73 53.2153 43.73C52.2253 43.73 51.7303 43.28 51.7303 42.38C51.7303 42.08 51.8053 41.81 51.9553 41.57C54.1753 39.53 55.7353 37.865 56.6353 36.575C57.3553 35.855 58.1053 34.85 58.8853 33.56C59.6953 32.27 60.3703 31.205 60.9103 30.365C61.4803 29.525 61.9303 29.105 62.2603 29.105ZM87.0535 30.41C86.2735 30.41 84.9535 31.22 83.0935 32.84C81.2335 34.43 80.3035 35.405 80.3035 35.765C80.3035 35.825 80.3485 35.855 80.4385 35.855C81.0985 35.855 82.4035 35.12 84.3535 33.65C86.3335 32.18 87.3235 31.175 87.3235 30.635C87.3235 30.485 87.2335 30.41 87.0535 30.41ZM77.4685 44.81C75.1585 44.81 74.0035 43.4 74.0035 40.58C74.0035 38.81 74.7685 36.935 76.2985 34.955C77.8585 32.945 79.6885 31.31 81.7885 30.05C83.8885 28.76 85.7485 28.115 87.3685 28.115C88.0885 28.115 88.7485 28.4 89.3485 28.97C89.9785 29.54 90.2935 30.095 90.2935 30.635C90.2935 31.625 89.5885 32.75 88.1785 34.01C86.7685 35.24 85.2835 36.245 83.7235 37.025C82.1935 37.775 81.1735 38.15 80.6635 38.15C80.1835 38.15 79.8235 37.925 79.5835 37.475C79.4635 37.385 79.2985 37.34 79.0885 37.34C78.8785 37.34 78.5335 37.745 78.0535 38.555C77.5735 39.335 77.3335 39.98 77.3335 40.49C77.3335 40.97 77.5135 41.27 77.8735 41.39C80.1535 41.39 82.6285 40.73 85.2985 39.41C87.9685 38.06 91.6585 35.705 96.3685 32.345C96.6985 32.105 97.1935 31.745 97.8535 31.265C98.5435 30.785 98.9485 30.5 99.0685 30.41C99.3385 30.62 99.4735 30.875 99.4735 31.175C99.4735 31.475 99.3385 31.745 99.0685 31.985C97.5685 33.485 95.6185 35.165 93.2185 37.025C90.8485 38.885 88.1185 40.655 85.0285 42.335C81.9385 43.985 79.4185 44.81 77.4685 44.81ZM104.165 20.105C107.075 18.095 110.39 16.505 114.11 15.335C117.83 14.165 120.905 13.58 123.335 13.58C125.765 13.58 127.715 13.85 129.185 14.39C130.685 14.9 131.765 15.56 132.425 16.37C133.535 17.75 134.09 18.95 134.09 19.97C134.09 21.2 133.235 22.64 131.525 24.29C130.655 25.13 129.425 26.06 127.835 27.08L127.34 27.35C127.13 27.41 127.025 27.5 127.025 27.62L127.295 27.845C128.465 28.325 129.35 28.895 129.95 29.555C130.58 30.215 130.895 31.19 130.895 32.48C130.895 34.25 130.1 35.945 128.51 37.565C126.95 39.155 125.105 40.445 122.975 41.435C120.845 42.395 118.85 43.16 116.99 43.73C115.13 44.3 113.795 44.585 112.985 44.585C112.205 44.585 111.5 44.48 110.87 44.27C110.24 44.09 109.73 43.865 109.34 43.595C108.53 43.025 107.96 42.44 107.63 41.84C107.51 41.69 107.405 41.615 107.315 41.615C107.105 41.615 106.715 42.275 106.145 43.595C105.575 44.915 105.275 45.575 105.245 45.575V45.53C105.155 45.83 105.005 45.98 104.795 45.98C104.315 45.98 103.85 45.53 103.4 44.63C102.98 43.76 102.77 43.085 102.77 42.605C102.77 42.095 103.07 41.255 103.67 40.085C104.27 38.885 104.87 37.865 105.47 37.025L106.37 35.765C107.06 34.265 109.91 31.13 114.92 26.36C119.93 21.59 122.765 19.205 123.425 19.205C123.725 19.205 123.965 19.31 124.145 19.52C124.355 19.7 124.52 19.985 124.64 20.375C124.64 20.615 124.505 20.81 124.235 20.96L117.89 27.8C117.83 27.92 117.8 28.01 117.8 28.07C117.8 28.1 117.845 28.115 117.935 28.115C118.595 28.115 120.095 27.605 122.435 26.585C124.775 25.565 127.04 24.32 129.23 22.85C131.45 21.38 132.56 20.165 132.56 19.205C132.56 18.155 130.46 17.63 126.26 17.63C123.59 17.63 120.95 17.93 118.34 18.53C115.76 19.1 113.54 19.805 111.68 20.645C109.85 21.455 108.2 22.31 106.73 23.21C105.26 24.11 104.165 24.89 103.445 25.55C102.725 26.21 102.365 26.63 102.365 26.81C102.365 26.99 102.44 27.08 102.59 27.08C103.55 27.08 105.125 26.57 107.315 25.55C109.535 24.5 110.885 23.81 111.365 23.48C111.845 23.12 112.145 22.94 112.265 22.94C112.415 22.94 112.535 23.015 112.625 23.165C111.515 24.995 109.985 26.555 108.035 27.845C106.115 29.105 104.615 29.735 103.535 29.735C102.455 29.735 101.555 29.3 100.835 28.43C100.145 27.53 99.8001 26.75 99.8001 26.09C99.8001 24.08 101.255 22.085 104.165 20.105ZM128.69 30.725C128.69 30.425 128.495 30.185 128.105 30.005C127.745 29.825 127.37 29.72 126.98 29.69H126.395C124.505 29.69 122.105 30.11 119.195 30.95C118.205 31.22 117.59 31.355 117.35 31.355C117.11 31.355 116.9 31.265 116.72 31.085C116.57 30.905 116.45 30.74 116.36 30.59C116.3 30.41 116.195 30.32 116.045 30.32C115.865 30.32 115.67 30.425 115.46 30.635L107.675 41.03V41.075C107.825 41.345 108.125 41.48 108.575 41.48H109.115C111.365 41.48 114.05 40.865 117.17 39.635C120.29 38.375 122.99 36.89 125.27 35.18C127.55 33.44 128.69 31.955 128.69 30.725ZM134.423 42.02C135.383 42.02 136.568 41.39 137.978 40.13C139.388 38.87 140.123 38 140.183 37.52C139.823 37.22 139.433 36.68 139.013 35.9C138.623 35.09 138.413 34.685 138.383 34.685C137.453 35.555 136.628 36.56 135.908 37.7C134.768 39.62 134.198 40.94 134.198 41.66C134.198 41.9 134.273 42.02 134.423 42.02ZM144.143 30.995C143.843 30.995 143.213 31.46 142.253 32.39C141.323 33.32 140.858 33.965 140.858 34.325C140.858 34.415 140.948 34.595 141.128 34.865C141.308 35.135 141.443 35.27 141.533 35.27C142.043 35.27 142.613 34.655 143.243 33.425C143.903 32.195 144.233 31.49 144.233 31.31C144.233 31.1 144.203 30.995 144.143 30.995ZM144.233 36.8C145.073 36.8 146.378 36.29 148.148 35.27C149.948 34.25 151.523 33.23 152.873 32.21L154.898 30.635C155.168 30.845 155.303 31.1 155.303 31.4C155.303 31.7 155.168 31.97 154.898 32.21C149.948 36.8 146.198 39.095 143.648 39.095C143.468 39.095 143.198 39.065 142.838 39.005C139.448 42.935 136.538 44.9 134.108 44.9C132.488 44.66 131.468 44.09 131.048 43.19C130.808 42.74 130.688 42.17 130.688 41.48C130.688 39.5 131.828 37.145 134.108 34.415C136.388 31.655 139.253 29.63 142.703 28.34C143.003 28.34 143.228 28.415 143.378 28.565C143.528 28.685 143.663 28.76 143.783 28.79C143.903 28.79 144.053 28.73 144.233 28.61C144.443 28.46 144.713 28.385 145.043 28.385C145.373 28.355 145.718 28.535 146.078 28.925C146.558 29.315 146.798 29.795 146.798 30.365C146.798 32.045 145.943 34.19 144.233 36.8ZM154.634 42.11L154.994 39.23C154.994 39.14 154.964 39.095 154.904 39.095C154.874 39.095 154.799 39.155 154.679 39.275C154.289 39.695 153.794 40.22 153.194 40.85C152.594 41.45 151.559 42.275 150.089 43.325C148.649 44.345 147.479 44.855 146.579 44.855C146.429 44.825 146.249 44.765 146.039 44.675C145.799 44.615 145.499 44.375 145.139 43.955C144.779 43.535 144.599 42.935 144.599 42.155C144.599 41.375 145.199 40.19 146.399 38.6C147.569 36.98 148.979 35.405 150.629 33.875C152.279 32.315 154.109 30.965 156.119 29.825C158.159 28.685 159.929 28.115 161.429 28.115C161.999 28.145 162.449 28.55 162.779 29.33C163.079 29.03 163.349 28.88 163.589 28.88C163.829 28.88 164.114 29.06 164.444 29.42C164.624 29.45 164.804 29.555 164.984 29.735C165.164 29.885 165.254 30.11 165.254 30.41C165.254 30.71 165.044 31.04 164.624 31.4C163.994 32.18 163.259 33.065 162.419 34.055C161.579 35.045 160.979 35.765 160.619 36.215C160.259 36.635 159.884 37.115 159.494 37.655C158.834 38.585 158.474 39.335 158.414 39.905C161.474 38.435 166.289 35.27 172.859 30.41C173.129 30.62 173.264 30.875 173.264 31.175C173.264 31.475 173.144 31.73 172.904 31.94C172.664 32.15 172.364 32.405 172.004 32.705C171.674 33.005 170.999 33.59 169.979 34.46C168.959 35.33 167.969 36.17 167.009 36.98C166.079 37.76 164.999 38.645 163.769 39.635C162.569 40.595 161.489 41.42 160.529 42.11C158.219 43.76 156.779 44.585 156.209 44.585C155.639 44.585 155.234 44.405 154.994 44.045C154.754 43.685 154.634 43.04 154.634 42.11ZM150.044 40.22C150.404 40.22 151.499 39.485 153.329 38.015C155.189 36.545 156.944 35.075 158.594 33.605L161.114 31.4C161.234 31.28 161.294 31.205 161.294 31.175C161.294 31.115 161.249 31.085 161.159 31.085C160.019 31.085 158.534 31.745 156.704 33.065C154.874 34.355 153.284 35.735 151.934 37.205C150.614 38.645 149.954 39.62 149.954 40.13C149.954 40.19 149.984 40.22 150.044 40.22ZM165.735 35.585C167.385 34.445 169.11 33.215 170.91 31.895C169.95 31.235 169.335 30.59 169.065 29.96C168.975 29.75 168.93 29.6 168.93 29.51C168.93 28.91 169.125 28.52 169.515 28.34C169.905 28.13 170.535 28.025 171.405 28.025C171.735 28.025 172.71 28.43 174.33 29.24C175.95 30.05 176.97 30.455 177.39 30.455C177.84 30.455 178.455 30.335 179.235 30.095C180.015 29.825 180.63 29.69 181.08 29.69C181.56 29.69 181.905 29.795 182.115 30.005C182.865 30.995 183.24 31.595 183.24 31.805C183.24 32.015 183.135 32.195 182.925 32.345C182.745 32.465 182.13 32.885 181.08 33.605C180.06 34.325 179.055 35.06 178.065 35.81C177.075 36.56 176.145 37.4 175.275 38.33C174.405 39.26 173.97 40.01 173.97 40.58C173.97 40.67 174.045 40.715 174.195 40.715C175.815 40.715 181.275 37.43 190.575 30.86C190.785 30.86 190.89 31.055 190.89 31.445C190.89 31.805 189.705 33.095 187.335 35.315C184.965 37.505 182.28 39.665 179.28 41.795C176.31 43.895 174.15 44.945 172.8 44.945C170.7 44.945 169.65 43.895 169.65 41.795C169.65 40.655 170.025 39.56 170.775 38.51C171.555 37.43 173.175 35.99 175.635 34.19C175.125 34.19 174.435 34.07 173.565 33.83C172.695 33.56 172.14 33.245 171.9 32.885C171.12 33.575 169.77 34.73 167.85 36.35C167.4 36.68 166.815 36.845 166.095 36.845C165.375 36.845 165.015 36.74 165.015 36.53C165.015 36.29 165.255 35.975 165.735 35.585ZM186.302 40.22C186.662 40.22 187.757 39.485 189.587 38.015C191.447 36.545 193.217 35.075 194.897 33.605L197.372 31.4C197.492 31.28 197.552 31.205 197.552 31.175C197.552 31.115 197.507 31.085 197.417 31.085C196.277 31.085 194.792 31.745 192.962 33.065C191.132 34.355 189.542 35.735 188.192 37.205C186.872 38.645 186.212 39.62 186.212 40.13C186.212 40.19 186.242 40.22 186.302 40.22ZM194.087 40.895C194.087 40.985 194.177 41.03 194.357 41.03C194.567 41.03 195.452 40.58 197.012 39.68C201.092 37.37 205.892 34.28 211.412 30.41C211.682 30.62 211.817 30.875 211.817 31.175C211.817 31.475 211.667 31.76 211.367 32.03C211.067 32.3 210.632 32.69 210.062 33.2C209.522 33.71 208.472 34.625 206.912 35.945C205.352 37.265 203.897 38.465 202.547 39.545C199.007 42.395 196.397 44.075 194.717 44.585C194.177 44.735 193.592 44.81 192.962 44.81C192.362 44.72 191.807 44.495 191.297 44.135C190.817 43.775 190.577 43.355 190.577 42.875C190.577 42.395 190.682 41.69 190.892 40.76C191.132 39.8 191.252 39.29 191.252 39.23C191.252 39.14 191.222 39.095 191.162 39.095C191.132 39.095 191.057 39.155 190.937 39.275C190.547 39.695 190.052 40.22 189.452 40.85C188.852 41.45 187.817 42.275 186.347 43.325C184.907 44.345 183.737 44.855 182.837 44.855C182.687 44.825 182.507 44.765 182.297 44.675C182.057 44.615 181.757 44.375 181.397 43.955C181.037 43.535 180.857 42.935 180.857 42.155C180.857 41.375 181.442 40.19 182.612 38.6C183.782 36.98 185.207 35.405 186.887 33.875C188.567 32.315 190.412 30.965 192.422 29.825C194.432 28.685 196.187 28.115 197.687 28.115C198.227 28.115 198.677 28.52 199.037 29.33C199.007 29.12 199.982 27.77 201.962 25.28C203.942 22.76 206.282 20.24 208.982 17.72C211.712 15.17 213.827 13.895 215.327 13.895C215.837 13.895 216.092 14.135 216.092 14.615C216.092 15.365 215.582 16.385 214.562 17.675C213.572 18.965 212.492 20.165 211.322 21.275C210.182 22.385 208.697 23.78 206.867 25.46C202.637 29.3 199.442 32.57 197.282 35.27C195.152 37.97 194.087 39.845 194.087 40.895Z"/></svg>